<?xml version="1.0" encoding="UTF-8"?>
<!--Generator: Apple Native CoreSVG 341-->
<!DOCTYPE svg
PUBLIC "-//W3C//DTD SVG 1.1//EN"
       "http://www.w3.org/Graphics/SVG/1.1/DTD/svg11.dtd">
<svg version="1.1" xmlns="http://www.w3.org/2000/svg" xmlns:xlink="http://www.w3.org/1999/xlink" viewBox="0 0 712.178 346.459">
 <g>
  <rect height="346.459" opacity="0" width="712.178" x="0" y="0"/>
  <path d="M707.204 95.5971L658.4 293.917C652.969 315.85 646.904 329.673 619.892 329.673L465.226 329.673L459.795 346.459L249.836 346.459L244.405 329.673L89.7393 329.673C62.7273 329.673 56.6621 315.357 51.2314 293.917L2.00353 95.5971C-9.49232 49.8962 30.5672 8.70895 68.9337 8.70895L640.273 8.70895C678.005 8.70895 718.699 49.8962 707.204 95.5971ZM499.109 226.637C496.781 226.637 494.595 228.823 494.595 231.15L494.595 240.812C494.595 243.14 496.147 245.326 499.109 245.326L524.921 245.326C527.249 245.326 529.435 243.14 529.435 240.812L529.435 231.15C528.8 228.823 527.249 226.637 524.921 226.637ZM184.131 226.637C181.803 226.637 180.252 228.823 179.617 231.15L179.617 240.812C179.617 243.14 181.803 245.326 184.131 245.326L209.943 245.326C212.905 245.326 214.457 243.14 214.457 240.812L214.457 231.15C214.457 228.823 212.271 226.637 209.943 226.637ZM433.165 226.637C430.838 226.637 428.652 228.823 428.652 231.15L428.652 240.812C428.652 243.14 430.203 245.326 433.165 245.326L458.978 245.326C461.305 245.326 463.491 243.14 463.491 240.812L463.491 231.15C463.491 228.823 461.305 226.637 458.978 226.637ZM250.074 226.637C247.747 226.637 245.561 228.823 245.561 231.15L245.561 240.812C245.561 243.14 247.747 245.326 250.074 245.326L275.887 245.326C278.849 245.326 280.4 243.14 280.4 240.812L280.4 231.15C280.4 228.823 278.214 226.637 275.887 226.637ZM373.569 226.637C371.242 226.637 369.056 228.823 369.056 231.15L369.056 240.812C369.056 243.14 370.607 245.326 373.569 245.326L399.382 245.326C401.709 245.326 403.895 243.14 403.895 240.812L403.895 231.15C403.895 228.823 401.568 226.637 399.382 226.637ZM309.67 226.637C307.484 226.637 305.157 228.823 305.157 231.15L305.157 240.812C305.157 243.14 307.343 245.326 309.67 245.326L335.483 245.326C338.445 245.326 339.996 243.14 339.996 240.812L339.996 231.15C339.996 228.823 337.81 226.637 335.483 226.637ZM559.622 226.637C557.294 226.637 555.108 228.823 555.108 231.15L555.108 240.812C555.108 243.14 556.66 245.326 559.622 245.326L585.434 245.326C587.762 245.326 589.948 243.14 589.948 240.812L589.948 231.15C589.313 228.823 587.762 226.637 585.434 226.637ZM123.618 226.637C121.29 226.637 119.739 228.823 119.104 231.15L119.104 240.812C119.104 243.14 121.29 245.326 123.618 245.326L149.43 245.326C152.392 245.326 153.944 243.14 153.944 240.812L153.944 231.15C153.944 228.823 151.758 226.637 149.43 226.637ZM354.216 160.411L136.285 160.411C132.548 160.411 130.079 163.514 130.079 167.252L130.079 176.42C130.079 180.158 133.182 183.261 136.285 183.261L572.287 183.261C576.025 183.261 578.494 180.158 578.494 176.42L578.494 167.252C578.494 163.514 575.39 160.411 572.287 160.411ZM559.622 98.6285C557.294 98.6285 555.108 100.815 555.108 103.142L555.108 112.804C555.108 115.131 556.66 117.317 559.622 117.317L585.434 117.317C587.762 117.317 589.948 115.131 589.948 112.804L589.948 103.142C589.313 100.815 587.762 98.6285 585.434 98.6285ZM123.618 98.6285C121.29 98.6285 119.739 100.815 119.104 103.142L119.104 112.804C119.104 115.131 121.29 117.317 123.618 117.317L149.43 117.317C152.392 117.317 153.944 115.131 153.944 112.804L153.944 103.142C153.944 100.815 151.758 98.6285 149.43 98.6285ZM499.109 98.6285C496.781 98.6285 494.595 100.815 494.595 103.142L494.595 112.804C494.595 115.131 496.147 117.317 499.109 117.317L524.921 117.317C527.249 117.317 529.435 115.131 529.435 112.804L529.435 103.142C528.8 100.815 527.249 98.6285 524.921 98.6285ZM184.131 98.6285C181.803 98.6285 180.252 100.815 179.617 103.142L179.617 112.804C179.617 115.131 181.803 117.317 184.131 117.317L209.943 117.317C212.905 117.317 214.457 115.131 214.457 112.804L214.457 103.142C214.457 100.815 212.271 98.6285 209.943 98.6285ZM433.165 98.6285C430.838 98.6285 428.652 100.815 428.652 103.142L428.652 112.804C428.652 115.131 430.203 117.317 433.165 117.317L458.978 117.317C461.305 117.317 463.491 115.131 463.491 112.804L463.491 103.142C463.491 100.815 461.305 98.6285 458.978 98.6285ZM250.074 98.6285C247.747 98.6285 245.561 100.815 245.561 103.142L245.561 112.804C245.561 115.131 247.747 117.317 250.074 117.317L275.887 117.317C278.849 117.317 280.4 115.131 280.4 112.804L280.4 103.142C280.4 100.815 278.214 98.6285 275.887 98.6285ZM373.569 98.6285C371.242 98.6285 369.056 100.815 369.056 103.142L369.056 112.804C369.056 115.131 370.607 117.317 373.569 117.317L399.382 117.317C401.709 117.317 403.895 115.131 403.895 112.804L403.895 103.142C403.895 100.815 401.568 98.6285 399.382 98.6285ZM309.67 98.6285C307.484 98.6285 305.157 100.815 305.157 103.142L305.157 112.804C305.157 115.131 307.343 117.317 309.67 117.317L335.483 117.317C338.445 117.317 339.996 115.131 339.996 112.804L339.996 103.142C339.996 100.815 337.81 98.6285 335.483 98.6285Z" fill="black" fill-opacity="0.85"/>
 </g>
</svg>
